<svg version="1.2" xmlns="http://www.w3.org/2000/svg" viewBox="0 0 110 128" width="110" height="128"><style>tspan{white-space:pre}.a{fill:#bd661f}.b{fill:#fefefe}.c{font-size: 63px;fill: #bd661f;font-weight: 400;font-family: "ExpletusSans-Regular", "Expletus Sans"}.d{font-size: 63px;fill: #403d3a;font-weight: 400;font-family: "ExpletusSans-Regular", "Expletus Sans"}</style><path class="a" d="m13.6 2.4c-1.9 0.3-3.6 0.9-5.2 2-9.2 6.2-3.5 18.5 0.5 26.1 1.1 2 2.9 3.9 3.5 6.1 0.8 2.5-0.3 5.9-0.5 8.4-0.2 3.6 0.3 7.6 1 11.1 2.8 15 12.6 29.5 24.9 38.4 4.7 3.3 10.7 7.1 16.8 6.3 7.7-1 14.3-5.9 19.7-11.2 9.8-9.5 17.2-21.3 19.6-34.9 0.7-4.2 0.3-8.9 0.3-13.2-0.1-1.4-0.5-3-0.2-4.4 0.5-2.2 2.3-4.3 3.4-6.2 3.4-6.1 8.9-17.3 3.7-23.8-5.4-6.7-14.5-5.5-21-1.3-2.2 1.4-4.2 4.3-6.6 5.1-1.6 0.5-3.8-0.6-5.3-1-3.3-0.8-6.7-1.1-10.1-1.4-5.4-0.6-11.4-0.2-16.7 0.7-2.3 0.4-5.7 2.1-8 1.8-2.1-0.4-4-3.1-5.7-4.3-3.9-2.9-9.1-5.1-14.1-4.3z"/><path class="b" d="m16.3 6.2c3.4 3.4 7.1 5.9 9.8 10.1 0.7 1.2 2.4 6-0.9 4.7-1.6-0.6-2.6-2.9-3.5-4.2-2.5-3.3-6.6-7.9-11.1-7.9-3.3 0-3.2 3.7-3.1 6.1 0.1 5.6 3.6 11.8 6.6 16.3 1.1-1.3 3.9-8.3 6.3-5.5 1.4 1.6-0.9 4.1-1.6 5.5-2 4.3-2.9 9.5-3 14.2-0.1 11.8 4.2 23.2 11.2 32.6 2.4 3.2 5 6.6 8.2 8.9-1.4-4.2-2.5-8.5-3.1-12.8-0.3-1.8-0.8-4-0.1-5.7 0.8-2.1 3.2-3.2 4.6-5 2.4-3.2 3.7-8.6 3.4-12.7-0.2-2.9-4.1-2.4-6.1-3.5-3-1.7-4.4-4.3-4.9-7.6-1.6 0-6.2-1.5-3-3.5 1.1-0.7 2.7-0.4 3.9-0.4 3.3 0 10.3-0.1 12.5 2.7 1.4 1.7 1.1 4.5 1.2 6.5 0.4 6.1 0.8 12.5-2.2 18.1-1.3 2.4-5.1 4.9-5.6 7.6-0.5 2.5 0.7 5.8 1.3 8.3 0.8 3.9 1.9 9.4 4.3 12.7 2.1 3 8.2 5.4 11.8 5.4 3.7 0 9.7-2.4 11.9-5.4 2.4-3.3 3.5-8.8 4.3-12.7 0.6-2.5 1.8-5.8 1.3-8.3-0.5-2.5-4.1-4.9-5.3-7.1-3.3-5.7-3-12.3-2.5-18.6 0.1-2-0.1-4.8 1.2-6.5 2.3-3 9.1-2.7 12.5-2.7 1.2 0 2.8-0.3 3.9 0.4 3.2 2-1.4 3.5-3.1 3.5-0.5 6-5.4 8.8-11 8.9 0 4.5 0.3 9.6 2.7 13.6 1.4 2.4 4.8 4.1 5.5 6.7 0.5 1.7 0.1 3.6-0.2 5.3-0.6 4.1-2.1 8.1-2.7 12.3 3.1-2.2 5.4-5.4 7.7-8.4 7-9.3 11.2-20.4 11.2-32.2 0-4.8-0.9-10.2-2.9-14.6-0.7-1.3-3-4-1.6-5.5 0.8-0.8 2-0.3 2.7 0.4 1.7 1.3 2.3 3.5 3.6 5.1 3-4.5 6.4-10.7 6.6-16.3 0.1-3.7-0.8-7.2-5.3-5.7-3.8 1.3-6.9 4.7-9.2 7.9-0.9 1.2-2.1 4.1-4 3.9-2.6-0.3-0.9-3.6-0.1-4.8 2.5-3.9 5.8-7.2 9.8-9.7-3.8-1.3-9.7 3.3-12.2 5.8-1 1-1.9 2.4-3.2 3-1.4 0.6-2.7-0.2-4-0.6-1.9-0.8-4-1.3-6.1-1.6 1.3 5 3.7 9.8 3.9 15 0.1 1.5-0.2 6.3-2.8 4.2-1.6-1.2-1.1-4.2-1.5-5.9-0.8-3.5-1.5-6.9-2.9-10.2-0.5-1.2-1-2.8-2.1-3.5-1.6-0.9-4.3-0.4-6.1-0.4-1.6 0-3.6-0.3-5.2 0.1-1.7 0.5-2.3 2.3-2.9 3.8-1.6 3.7-2.8 7.9-3.2 11.9-0.2 1.4-0.2 5.4-2.7 4.4-1.8-0.8-1.4-3.7-1.3-5.2 0.5-4.9 2.6-9.5 3.9-14.2-1.9 0.3-3.9 0.8-5.7 1.4-1.2 0.4-2.6 1.3-4 1-1.9-0.6-3.4-3-4.8-4.2-3.1-2.7-6.9-4.9-11-5.2z"/><path class="b" d="m33 40.2c1.2 3.1 3.3 4.3 6.6 4.4-0.5-4.1-2.8-4.4-6.6-4.4z"/><path class="b" d="m67.3 40.6l-0.4 4c3.2-0.1 5.4-1.4 6.6-4.4z"/><path class="a" d="m45.4 69.2c-1.8 0.8-1.1 3-0.6 4.5 0.6 2 1.7 3.8 3.2 5.3 1.5 1.5 3.6 2.4 3.4 4.9-0.1 3.9-5.5 1.7-6.2 4.8-0.2 1.3 0.8 2 1.9 2.1 2.1 0.2 4.1-1.1 6.1-1.1 2.2 0 4.8 1.9 7 0.9 1.5-0.7 1.3-2.3 0-3.1-2.1-1.4-5.9-0.8-5.1-4.5 0.5-1.8 2.2-2.8 3.4-4 1.9-2 3.6-4.7 3.7-7.5q0.1-2.1-1.9-2.5c-3.2-0.7-6.9-0.1-10.1-0.1-1.5 0-3.4-0.4-4.8 0.3z"/><path class="b" d="m48.8 72.8c1.9 5.5 7 5.5 8.8 0z"/><text style="transform:matrix(.44,0,0,.441,2.2,124.469)" ><tspan x="0" y="0" class="c">G</tspan><tspan  y="0" class="c">h</tspan><tspan  y="0" class="c">e</tspan><tspan  y="0" class="d">e</tspan><tspan  y="0" class="d">t</tspan><tspan  y="0" class="d">a</tspan><tspan  y="0" class="d">h
</tspan></text></svg>