<svg xmlns="http://www.w3.org/2000/svg" xml:space="preserve" viewBox="0 0 64 64"><g><path fill="#1f6dbd" d="M8.944 3.374c-1.08.172-2.047.516-2.957 1.146-5.232 3.555-1.99 10.608.284 14.966.626 1.147 1.65 2.236 1.99 3.498.455 1.433-.17 3.383-.284 4.816-.114 2.065.17 4.358.569 6.365 1.592 8.601 7.165 16.915 14.16 22.019 2.673 1.892 6.086 4.07 9.555 3.612 4.379-.573 8.132-3.383 11.203-6.422 5.573-5.447 9.782-12.213 11.147-20.012.398-2.408.17-5.103.17-7.569-.057-.802-.284-1.72-.114-2.522.285-1.262 1.308-2.466 1.934-3.556 1.934-3.497 5.061-9.92 2.104-13.646-3.07-3.842-8.246-3.154-11.942-.746-1.252.803-2.389 2.466-3.754 2.924-.91.287-2.161-.344-3.014-.573-1.877-.459-3.81-.63-5.744-.803-3.07-.344-6.483-.114-9.497.402-1.308.229-3.242 1.204-4.55 1.032-1.194-.23-2.275-1.778-3.241-2.466-2.218-1.663-5.176-2.924-8.019-2.465z" vector-effect="non-scaling-stroke"/><path fill="#fefefe" d="M10.48 5.558c1.934 1.95 4.038 3.383 5.573 5.792.398.688 1.365 3.44-.512 2.695-.91-.344-1.478-1.663-1.99-2.409-1.422-1.892-3.754-4.53-6.313-4.53-1.876 0-1.82 2.122-1.763 3.498.057 3.211 2.048 6.766 3.754 9.347.625-.746 2.218-4.76 3.583-3.154.796.917-.512 2.35-.91 3.154-1.138 2.465-1.65 5.447-1.706 8.142-.057 6.766 2.388 13.303 6.369 18.693 1.365 1.835 2.844 3.784 4.663 5.103-.796-2.408-1.421-4.874-1.763-7.34-.17-1.032-.455-2.293-.056-3.268.454-1.204 1.82-1.835 2.616-2.867 1.364-1.835 2.104-4.931 1.933-7.282-.114-1.663-2.332-1.376-3.469-2.007-1.706-.975-2.502-2.466-2.787-4.358-.91 0-3.526-.86-1.706-2.007.626-.401 1.536-.23 2.218-.23 1.877 0 5.858-.056 7.109 1.55.796.974.626 2.58.682 3.726.228 3.498.455 7.168-1.25 10.379-.74 1.376-2.901 2.81-3.185 4.358-.285 1.433.398 3.325.739 4.759.455 2.236 1.08 5.39 2.445 7.282 1.195 1.72 4.664 3.096 6.711 3.096 2.104 0 5.516-1.376 6.767-3.096 1.365-1.892 1.99-5.046 2.446-7.282.341-1.434 1.024-3.326.74-4.76-.285-1.433-2.332-2.81-3.015-4.07-1.877-3.269-1.706-7.053-1.422-10.666.057-1.147-.057-2.752.683-3.727 1.308-1.72 5.175-1.548 7.109-1.548.682 0 1.592-.172 2.217.23 1.82 1.146-.796 2.006-1.763 2.006-.284 3.44-3.07 5.046-6.255 5.103 0 2.58.17 5.505 1.535 7.799.796 1.376 2.73 2.35 3.128 3.841.284.975.057 2.065-.114 3.04-.34 2.35-1.194 4.644-1.535 7.052 1.763-1.261 3.07-3.096 4.379-4.816 3.98-5.333 6.37-11.698 6.37-18.464 0-2.752-.512-5.848-1.65-8.371-.398-.746-1.706-2.294-.91-3.154.455-.459 1.138-.172 1.536.23.966.745 1.308 2.006 2.047 2.924 1.706-2.58 3.64-6.136 3.753-9.347.057-2.121-.455-4.128-3.014-3.268-2.16.745-3.924 2.695-5.232 4.53-.512.688-1.194 2.35-2.275 2.236-1.478-.172-.511-2.064-.056-2.752a17.87 17.87 0 0 1 5.573-5.562c-2.161-.746-5.517 1.892-6.938 3.325-.569.574-1.08 1.377-1.82 1.72-.796.345-1.536-.114-2.275-.343-1.08-.46-2.275-.746-3.469-.918.74 2.867 2.104 5.62 2.218 8.601.057.86-.114 3.612-1.592 2.408-.91-.688-.626-2.408-.853-3.383-.455-2.007-.854-3.956-1.65-5.848-.284-.688-.568-1.606-1.194-2.007-.91-.516-2.445-.23-3.469-.23-.91 0-2.047-.172-2.957.058-.967.286-1.308 1.319-1.65 2.179-.91 2.121-1.592 4.53-1.82 6.823-.113.803-.113 3.096-1.535 2.523-1.024-.459-.796-2.122-.74-2.982.285-2.81 1.48-5.447 2.219-8.142-1.08.172-2.218.459-3.242.803-.682.23-1.478.745-2.275.573-1.08-.344-1.933-1.72-2.73-2.408-1.762-1.548-3.923-2.81-6.255-2.982z" vector-effect="non-scaling-stroke"/><path fill="#fefefe" d="M20.004 25.094c.683 1.777 1.877 2.465 3.754 2.523-.285-2.351-1.593-2.523-3.754-2.523zM39.54 25.323l-.228 2.294c1.82-.058 3.07-.803 3.753-2.523z" vector-effect="non-scaling-stroke"/><path fill="#1f6dbd" d="M27.062 41.754c-1.024.458-.626 1.72-.341 2.58a7.242 7.242 0 0 0 1.82 3.039c.853.86 2.047 1.376 1.933 2.81-.057 2.236-3.128.974-3.526 2.752-.113.745.455 1.147 1.08 1.204 1.195.115 2.332-.63 3.47-.63 1.251 0 2.73 1.089 3.98.515.854-.401.74-1.318 0-1.777-1.194-.803-3.355-.459-2.9-2.58.285-1.033 1.252-1.606 1.934-2.294 1.08-1.147 2.047-2.695 2.104-4.3q.057-1.205-1.08-1.434c-1.82-.401-3.924-.057-5.744-.057-.853 0-1.934-.23-2.73.172z" vector-effect="non-scaling-stroke"/><path fill="#fefefe" d="M29.004 43.838c1.08 3.153 3.981 3.153 5.005 0z" vector-effect="non-scaling-stroke"/></g></svg>